<svg xmlns="http://www.w3.org/2000/svg" id="b" width="472" height="123.76" viewBox="0 0 472 123.76"><g id="c"><path d="M138.87,36.11h9.39c.26,0,.48.09.66.27.18.18.27.4.27.66v52.43c0,.26-.09.48-.27.66s-.4.27-.66.27h-9.07c-.26,0-.48-.09-.66-.27-.18-.18-.27-.4-.27-.66v-42.35c0-.21-.13-.31-.39-.31l-5.97.7h-.16c-.57,0-.85-.28-.85-.85l-.23-6.67c0-.52.23-.88.7-1.09l6.36-2.56c.41-.16.8-.23,1.16-.23Z" fill="#c9952a"></path><path d="M158.49,86.95c-2.79-2.87-4.19-6.66-4.19-11.36v-24.67c0-4.71,1.4-8.49,4.19-11.36,2.79-2.87,6.46-4.3,11.01-4.3,3,0,5.66.65,7.99,1.94,2.33,1.29,4.12,3.13,5.39,5.51,1.27,2.38,1.9,5.12,1.9,8.22v24.67c0,3.1-.63,5.84-1.9,8.22-1.27,2.38-3.06,4.22-5.39,5.51s-4.99,1.94-7.99,1.94c-4.55,0-8.22-1.44-11.01-4.31ZM172.65,80.32c.8-1.03,1.2-2.4,1.2-4.11v-25.91c0-1.71-.4-3.08-1.2-4.11-.8-1.03-1.85-1.55-3.14-1.55s-2.33.52-3.1,1.55c-.78,1.04-1.16,2.4-1.16,4.11v25.91c0,1.71.39,3.08,1.16,4.11.78,1.04,1.81,1.55,3.1,1.55s2.34-.52,3.14-1.55Z" fill="#c9952a"></path><path d="M217.36,86.52c-2.9,2.59-6.65,3.88-11.25,3.88h-14.66c-.26,0-.48-.09-.66-.27-.18-.18-.27-.4-.27-.66v-52.43c0-.26.09-.48.27-.66.18-.18.4-.27.66-.27h12.95c5.17,0,9.22,1.24,12.14,3.72,2.92,2.48,4.38,6.18,4.38,11.09s-1.76,8.84-5.27,11.17c-.21.16-.23.31-.08.47,4.08,2.9,6.13,7.19,6.13,12.88,0,4.81-1.45,8.51-4.34,11.09ZM201.46,45.88v12.18c0,.26.13.39.39.39h2.79c1.76,0,3.13-.56,4.11-1.67.98-1.11,1.47-2.68,1.47-4.69,0-2.12-.48-3.75-1.43-4.89-.96-1.14-2.34-1.71-4.15-1.71h-2.79c-.26,0-.39.13-.39.39ZM209.29,79.08c.98-1.24,1.47-3,1.47-5.27s-.49-4.08-1.47-5.43c-.98-1.34-2.3-2.02-3.96-2.02h-3.49c-.26,0-.39.13-.39.39v13.81c0,.26.13.39.39.39h3.41c1.71,0,3.05-.62,4.03-1.86Z" fill="#c9952a"></path><path d="M227.25,90.13c-.18-.18-.27-.4-.27-.66v-52.43c0-.26.09-.48.27-.66.18-.18.4-.27.66-.27h9.07c.26,0,.48.09.66.27.18.18.27.4.27.66v52.43c0,.26-.09.48-.27.66-.18.18-.4.27-.66.27h-9.07c-.26,0-.48-.09-.66-.27Z" fill="#c9952a"></path><path d="M275.57,36.38c.18.18.27.4.27.66v7.52c0,.26-.09.48-.27.66s-.4.27-.66.27h-9.7c-.26,0-.39.13-.39.39v43.59c0,.26-.09.48-.27.66-.18.18-.4.27-.66.27h-9.07c-.26,0-.48-.09-.66-.27-.18-.18-.27-.4-.27-.66v-43.59c0-.26-.13-.39-.39-.39h-9.31c-.26,0-.48-.09-.66-.27-.18-.18-.27-.4-.27-.66v-7.52c0-.26.09-.48.27-.66s.4-.27.66-.27h30.72c.26,0,.48.09.66.27Z" fill="#c9952a"></path><path d="M289.8,89.55l-10.47-52.43-.08-.31c0-.47.28-.7.85-.7h9.46c.62,0,.96.28,1.01.85l4.42,27.92c.05.21.13.31.23.31s.18-.1.23-.31l4.19-27.92c.05-.57.39-.85,1.01-.85h7.83c.62,0,.96.28,1.01.85l4.58,27.92c.05.21.13.31.23.31s.18-.1.23-.31l3.96-27.92c.05-.57.39-.85,1.01-.85h9.15c.67,0,.96.34.85,1.01l-9.85,52.43c-.05.57-.39.85-1.01.85h-8.38c-.62,0-.96-.28-1.01-.85l-4.58-28.7c-.05-.21-.13-.31-.23-.31s-.18.1-.23.31l-4.11,28.7c-.05.57-.39.85-1.01.85h-8.3c-.57,0-.91-.28-1.01-.85Z" fill="#f5f0e6"></path><path d="M336.73,86.83c-2.84-2.79-4.27-6.52-4.27-11.17v-24.82c0-4.65,1.42-8.38,4.27-11.17,2.84-2.79,6.64-4.19,11.4-4.19s8.57,1.4,11.44,4.19c2.87,2.79,4.31,6.52,4.31,11.17v24.82c0,4.65-1.44,8.38-4.31,11.17-2.87,2.79-6.68,4.19-11.44,4.19s-8.56-1.4-11.4-4.19ZM351.62,80.12c.88-1.01,1.32-2.34,1.32-3.99v-25.75c0-1.65-.44-2.99-1.32-3.99-.88-1.01-2.04-1.51-3.49-1.51s-2.6.5-3.45,1.51c-.85,1.01-1.28,2.34-1.28,3.99v25.75c0,1.66.43,2.99,1.28,3.99.85,1.01,2,1.51,3.45,1.51s2.61-.5,3.49-1.51Z" fill="#f5f0e6"></path><path d="M390.25,89.63l-5.97-21.41c-.1-.21-.23-.31-.39-.31h-2.64c-.26,0-.39.13-.39.39v21.17c0,.26-.09.48-.27.66-.18.18-.4.27-.66.27h-9.07c-.26,0-.48-.09-.66-.27-.18-.18-.27-.4-.27-.66v-52.43c0-.26.09-.48.27-.66.18-.18.4-.27.66-.27h15.67c2.84,0,5.38.69,7.6,2.06,2.22,1.37,3.94,3.3,5.16,5.78,1.21,2.48,1.82,5.33,1.82,8.53s-.58,5.74-1.74,8.07c-1.16,2.33-2.78,4.14-4.85,5.43-.1.05-.18.12-.23.19-.05.08-.05.17,0,.27l7.14,22.88.08.31c0,.52-.28.78-.85.78h-9.31c-.57,0-.93-.26-1.09-.78ZM380.86,45.88v13.26c0,.26.13.39.39.39h3.49c1.6,0,2.91-.63,3.92-1.9,1.01-1.27,1.51-2.96,1.51-5.08s-.5-3.89-1.51-5.16c-1.01-1.27-2.31-1.9-3.92-1.9h-3.49c-.26,0-.39.13-.39.39Z" fill="#f5f0e6"></path><path d="M406.73,90.13c-.18-.18-.27-.4-.27-.66v-52.43c0-.26.09-.48.27-.66.18-.18.4-.27.66-.27h9.07c.26,0,.48.09.66.27.18.18.27.4.27.66v19.55c0,.21.06.32.19.35.13.03.22-.06.27-.27l10.01-19.86c.26-.47.62-.7,1.09-.7h9.62c.36,0,.61.09.74.27.13.18.12.45-.04.81l-11.48,22.34c-.05.21-.08.36-.08.47l12.18,29.32c.05.1.08.26.08.47,0,.41-.26.62-.78.62h-9.7c-.57,0-.93-.23-1.09-.7l-8.07-20.32c-.05-.16-.13-.22-.23-.19-.1.03-.21.09-.31.19l-2.25,4.03c-.1.21-.16.36-.16.47v15.59c0,.26-.09.48-.27.66-.18.18-.4.27-.66.27h-9.07c-.26,0-.48-.09-.66-.27Z" fill="#f5f0e6"></path><path d="M448.89,89.24c-2.28-1.19-4.03-2.86-5.27-5-1.24-2.14-1.86-4.61-1.86-7.41v-2.25c0-.26.09-.48.27-.66.18-.18.4-.27.66-.27h8.92c.26,0,.48.09.66.27.18.18.27.4.27.66v1.71c0,1.6.41,2.9,1.24,3.88.83.98,1.86,1.47,3.1,1.47s2.27-.47,3.1-1.4c.83-.93,1.24-2.15,1.24-3.65s-.52-2.88-1.55-3.99c-1.04-1.11-3.05-2.75-6.05-4.93-2.59-1.86-4.68-3.52-6.28-4.96-1.6-1.45-2.97-3.23-4.11-5.35-1.14-2.12-1.71-4.58-1.71-7.37,0-4.39,1.37-7.91,4.11-10.55,2.74-2.64,6.36-3.96,10.86-3.96s8.21,1.37,10.98,4.11c2.77,2.74,4.15,6.33,4.15,10.78v1.86c0,.26-.09.48-.27.66s-.4.27-.66.27h-8.92c-.26,0-.48-.09-.66-.27-.18-.18-.27-.4-.27-.66v-2.09c0-1.6-.4-2.88-1.2-3.84-.8-.96-1.85-1.44-3.14-1.44s-2.25.45-3.02,1.36c-.78.91-1.16,2.16-1.16,3.76s.49,2.92,1.47,4.11c.98,1.19,2.92,2.84,5.82,4.96,3.21,2.38,5.62,4.31,7.25,5.78,1.63,1.47,2.9,3.1,3.8,4.89.9,1.78,1.36,3.92,1.36,6.4,0,4.55-1.4,8.17-4.19,10.86-2.79,2.69-6.46,4.03-11.01,4.03-3,0-5.64-.6-7.91-1.78Z" fill="#f5f0e6"></path><path d="M139.37,115.94v-15.53h2.83l1.55,4.98c.16.47.29.92.4,1.35.11.43.19.76.23.97.06-.21.14-.54.24-.97.11-.43.23-.88.37-1.35l1.49-4.98h2.83v15.53h-2.17v-5.23c0-.67.02-1.41.05-2.22.03-.81.09-1.64.16-2.47.07-.83.14-1.62.21-2.38.07-.76.13-1.42.19-1.99l-2.3,7.55h-2.21l-2.34-7.55c.07.55.14,1.2.21,1.93.07.73.14,1.51.19,2.33s.11,1.65.15,2.48.06,1.61.06,2.33v5.23h-2.17Z" fill="#6e655b"></path><path d="M173.99,115.94l3.96-15.53h3.02l3.96,15.53h-2.32l-.94-3.94h-4.4l-.94,3.94h-2.34ZM177.69,110.11h3.53l-1.06-4.49c-.18-.79-.34-1.49-.46-2.07-.12-.59-.2-.99-.24-1.2-.04.21-.12.61-.23,1.2s-.27,1.27-.47,2.05l-1.06,4.51Z" fill="#6e655b"></path><path d="M209.97,115.94v-15.53h2.3v6.47h2.06l3.17-6.47h2.51l-3.66,7.45,3.83,8.09h-2.57l-3.32-7h-2.02v7h-2.3Z" fill="#6e655b"></path><path d="M245.29,115.94v-15.53h9.13v2.04h-6.87v4.4h6.13v2.02h-6.13v5.02h6.87v2.04h-9.13Z" fill="#6e655b"></path><path d="M280.19,115.94v-15.53h4.87c.98,0,1.83.19,2.55.56.72.38,1.29.9,1.69,1.59.4.68.61,1.48.61,2.4,0,1.04-.27,1.93-.8,2.69-.53.76-1.25,1.3-2.16,1.61l3.17,6.68h-2.62l-2.83-6.38h-2.19v6.38h-2.3ZM282.48,107.54h2.57c.77,0,1.38-.23,1.83-.69s.68-1.07.68-1.84-.23-1.42-.68-1.87c-.45-.45-1.06-.68-1.83-.68h-2.57v5.09Z" fill="#6e655b"></path><path d="M319.96,116.16c-1.05,0-1.95-.17-2.7-.52s-1.33-.84-1.74-1.49c-.41-.64-.62-1.41-.62-2.31h2.28c0,.71.25,1.27.74,1.67s1.18.61,2.06.61c.82,0,1.47-.2,1.94-.6.47-.4.7-.94.7-1.64,0-.58-.16-1.09-.48-1.51-.32-.43-.78-.72-1.37-.87l-1.96-.57c-1.13-.33-2.01-.88-2.63-1.67-.62-.79-.93-1.73-.93-2.82,0-.85.19-1.6.57-2.23s.93-1.13,1.64-1.49,1.55-.53,2.51-.53c1.42,0,2.56.38,3.42,1.15.86.77,1.29,1.8,1.31,3.09h-2.3c0-.68-.22-1.22-.65-1.61-.43-.39-1.04-.58-1.82-.58s-1.34.18-1.77.54c-.43.36-.64.87-.64,1.52,0,.58.16,1.09.48,1.51.32.43.78.72,1.37.89l1.98.6c1.13.31,2.01.87,2.62,1.66.61.79.92,1.74.92,2.85,0,.87-.21,1.63-.62,2.29-.41.66-.99,1.17-1.72,1.53-.74.36-1.6.54-2.6.54Z" fill="#6e655b"></path><path d="M350.41,115.94v-15.53h5.09c1.01,0,1.88.19,2.63.58.75.38,1.32.93,1.72,1.63.4.7.61,1.53.61,2.48s-.21,1.76-.62,2.47c-.41.71-.99,1.26-1.72,1.64-.74.38-1.61.57-2.62.57h-2.79v6.17h-2.3ZM352.7,107.71h2.79c.79,0,1.43-.24,1.9-.71.47-.47.71-1.11.71-1.9s-.24-1.45-.71-1.91-1.11-.7-1.9-.7h-2.79v5.23Z" fill="#6e655b"></path><path d="M384.64,115.94l3.96-15.53h3.02l3.96,15.53h-2.32l-.94-3.94h-4.4l-.94,3.94h-2.34ZM388.35,110.11h3.53l-1.06-4.49c-.18-.79-.34-1.49-.46-2.07-.12-.59-.2-.99-.24-1.2-.04.21-.12.61-.23,1.2s-.27,1.27-.47,2.05l-1.06,4.51Z" fill="#6e655b"></path><path d="M425.31,116.16c-.96,0-1.8-.18-2.52-.54-.72-.36-1.27-.89-1.66-1.57s-.58-1.49-.58-2.41v-6.89c0-.94.19-1.74.58-2.43.39-.68.94-1.2,1.66-1.56.72-.36,1.56-.54,2.52-.54s1.8.18,2.51.55c.71.37,1.26.89,1.65,1.56.39.67.58,1.48.58,2.41h-2.3c0-.81-.21-1.43-.64-1.85s-1.03-.64-1.81-.64-1.39.21-1.82.64c-.43.43-.65,1.04-.65,1.83v6.92c0,.79.22,1.41.65,1.84s1.04.65,1.82.65,1.38-.22,1.81-.65c.43-.43.64-1.05.64-1.84h2.3c0,.92-.2,1.72-.58,2.4-.39.68-.94,1.21-1.65,1.57-.71.37-1.55.55-2.51.55Z" fill="#6e655b"></path><path d="M455.95,115.94v-15.53h9.13v2.04h-6.87v4.4h6.13v2.02h-6.13v5.02h6.87v2.04h-9.13Z" fill="#6e655b"></path><polygon points="55.35 6.7 103.1 34.35 103.04 89.53 55.22 117.06 7.47 89.41 7.53 34.23 55.35 6.7" fill="#fff"></polygon><polygon points="83.29 48.03 83.29 78.14 57.23 93.18 57.23 63.09 83.29 48.03" fill="#e1e1e1"></polygon><polygon points="83.3 48.04 95.28 41.11 95.28 85.06 83.3 78.14 83.3 48.04" fill="#c8c8c8"></polygon><polygon points="83.3 78.14 57.23 93.18 57.23 107.03 95.28 85.06 83.3 78.14" fill="#b3b5b5"></polygon><polygon points="26.98 48.04 14.99 41.11 14.99 85.06 26.98 78.14 26.98 48.04" fill="#f2f2f3"></polygon><polygon points="26.98 78.14 53.05 93.19 53.05 107.03 14.99 85.06 26.98 78.14" fill="#e1e1e1"></polygon><path d="M97.37,35.08L55.14,10.7,12.9,35.08l-2.09,1.21v51.18l42.24,24.39,2.09,1.21,2.09-1.21,42.24-24.39v-51.18l-2.09-1.21ZM55.14,15.52l38.05,21.97-38.05,21.97-38.05-21.97L55.14,15.52ZM53.05,107.03l-38.05-21.97v-43.94l38.05,21.97v43.94ZM95.28,85.06l-38.05,21.97v-43.94l38.05-21.97v43.94Z" fill="#191919"></path><path d="M55.35,6.7l47.75,27.65-.07,55.18-47.82,27.53L7.47,89.41l.07-55.18L55.35,6.7M55.36,0L.07,30.88l-.07,61.88,52.31,29.33,2.9,1.68,2.9-1.67,52.38-29.2.07-61.88L55.36,0h0Z" fill="#191919"></path></g></svg>